<svg width="608" height="494" viewBox="0 0 608 494" fill="none" xmlns="http://www.w3.org/2000/svg">
<path d="M410.83 325C404.36 319.29 395.99 311.76 387.66 304.33C385.68 307.41 382.02 309.9 376.37 312.04C371.43 313.92 365.43 315.34 359.48 316.05L353.1 316.82C352.77 317.37 352.43 317.9 352.1 318.43C379.54 332.5 417.57 330.94 410.83 325Z" fill="white"/>
<path d="M473.66 295.78C464.86 291.57 446.19 282.71 426.8 273.54C425.09 278.68 419 283.6 408.67 288.16C404.43 290.05 397.04 292.86 388.45 294.21C389.52 296.49 389.73 299.09 388.94 301.6C388.74 302.23 388.49 302.83 388.19 303.41C433.08 331.95 483.51 300.49 473.66 295.78Z" fill="white"/>
<path d="M593.53 27.61C583.31 33.18 571.51 35.08 563.54 36.02C546.6 38.01 530.17 44.57 514.51 54.45L512.63 63.56C511.8 67.56 509.3 77.01 502.72 87.93C503.02 87.9 503.32 87.89 503.62 87.89C507.28 87.89 510.37 89.91 511.97 93.07C572.04 65.67 597.1 37.75 604.09 19.66C601.18 22.7 597.65 25.37 593.53 27.61Z" fill="white"/>
<path d="M595.42 57.16C589.88 59.55 556.02 74.16 512.02 93.15C512.5 94.12 512.84 95.2 513.01 96.37C514.03 103.55 508.27 118.84 499.62 131.94C497.41 135.28 494.75 138.88 491.62 142.51C492.12 142.44 492.64 142.4 493.14 142.4C497.56 142.4 501.22 145.12 502.57 149.1C606.98 123.03 606.09 52.56 595.42 57.16Z" fill="white"/>
<path d="M525.28 252.98C513.77 250.55 488.34 245.18 457.74 238.72C457.73 238.79 457.73 238.88 457.72 238.95C457.16 244.3 452.72 247.85 449.42 250.05C446.09 252.29 441.72 254.5 436.79 256.45C433.32 257.83 428.01 259.69 421.54 261.18C425.88 263.3 428.1 267.8 427.1 272.47C480.22 287.75 537.09 255.47 525.28 252.98Z" fill="white"/>
<path d="M589.54 131.09C575.19 134.1 542.24 141.01 502.65 149.31C502.95 150.23 503.13 151.21 503.17 152.24C503.53 161.87 490.9 175.83 483.4 182.55C481.7 184.07 479.81 185.65 477.76 187.24C479.01 187.65 480.16 188.32 481.14 189.2C482.81 190.7 483.89 192.74 484.24 194.96C574.91 187.05 601.7 128.54 589.54 131.09Z" fill="white"/>
<path d="M566.58 194.33C550.87 194.55 518.06 195.02 484.31 195.5C484.33 195.82 484.35 196.15 484.35 196.47C484.35 199.12 483.51 203.04 476.98 209.86C473.09 213.91 467.93 218.19 462.44 221.9C459.62 223.8 455.85 226.14 451.37 228.41C455.89 230.34 457.83 234.41 457.78 238.06C546.98 249.78 579 194.16 566.58 194.33Z" fill="white"/>
<path d="M393.72 202.24C412.23 160.49 436.51 121.37 462.11 92.1C477.39 74.61 493.21 60.51 509.09 50.18C526.88 38.61 544.96 31.68 562.8 29.58C589.47 26.44 604.03 16.74 607.02 0.00999832C597.69 7.72 582.46 12.54 561.61 14.39C510.4 18.89 461.82 72.91 414.82 125.14C376.36 167.9 339.73 244.26 303.96 254.76C268.19 244.26 231.56 167.89 193.1 125.14C146.1 72.89 97.5 18.88 46.3 14.38C25.45 12.53 10.22 7.72 0.880005 0C3.89 16.72 18.44 26.43 45.11 29.57C62.95 31.67 81.02 38.6 98.82 50.17C114.7 60.51 130.51 74.6 145.81 92.09C171.4 121.36 195.69 160.48 214.19 202.23C222.55 221.09 229.4 239.53 235.44 255.8C244.86 281.16 253 303.06 263.56 318.41C269.2 326.62 275.24 332.55 282.05 336.43C288.21 340.19 295.16 342.13 302.69 342.13C303.12 342.13 303.53 342.12 303.94 342.11C304.36 342.12 304.77 342.13 305.2 342.13C312.74 342.13 319.69 340.2 325.84 336.43C332.66 332.55 338.69 326.62 344.34 318.41C354.89 303.06 363.03 281.16 372.45 255.8C378.5 239.54 385.36 221.09 393.72 202.24Z" fill="white"/>
<path d="M358.42 307.18C371.5 305.62 383.23 300.34 379.9 297.43C375.75 293.78 371.65 290.18 367.62 286.64C364.64 294 361.61 300.88 358.42 307.18Z" fill="white"/>
<path d="M417.59 269.19C410.48 265.85 403.52 262.58 396.7 259.37C395.12 264.72 389.34 268.71 379.12 271.51L372.87 273.21C371.39 277.12 369.91 280.92 368.44 284.61C390.5 291.41 424.02 272.21 417.59 269.19Z" fill="white"/>
<path d="M480.22 82.26L476.08 98.12C475.15 101.73 473.44 105.3 470.98 108.83C493.07 93.47 501.6 72.8 503.88 61.75C495.74 67.78 487.84 74.69 480.22 82.26Z" fill="white"/>
<path d="M503.39 96.87C499.66 98.48 486.44 104.18 468.68 111.85C467.48 113.29 466.17 114.71 464.72 116.13C465.34 119.01 464.76 122.34 462.84 127.08C461.26 130.96 458.95 135.26 456.16 139.51C453.63 143.34 450.16 147.96 445.59 152.78C448.89 153.49 451.53 155.9 452.6 159.16C494.59 144.41 507.81 94.97 503.39 96.87Z" fill="white"/>
<path d="M474.43 195.64C463.93 195.79 450.31 195.98 438.25 196.16C438.26 196.19 438.26 196.23 438.27 196.28C438.85 204.37 428.81 213.43 425.72 216.01C423.18 218.13 419.93 220.49 415.98 222.69C417.35 224.3 418.17 226.37 418.24 228.63C451.92 227.23 481.22 195.53 474.43 195.64Z" fill="white"/>
<path d="M492.68 151.39C485.85 152.83 470.89 155.8 452.72 159.56C452.85 160.05 452.96 160.55 453.02 161.07C453.87 167.9 447.71 177.03 441.67 183.29C439.81 185.22 437.52 187.34 434.78 189.48C436.56 190.94 437.79 193.02 438.17 195.44C477.05 189.18 500.69 149.72 492.68 151.39Z" fill="white"/>
<path d="M446.99 236.36C438.21 234.51 427.74 232.27 418.15 230.24C417.55 234.69 413.87 239.34 407.21 244.07C403.57 246.65 399.52 248.83 395.3 250.5C396.22 251.84 396.76 253.28 397 254.68C426.49 256.04 456.72 238.41 446.99 236.36Z" fill="white"/>
<path d="M378.55 258.07C378.05 259.41 377.56 260.73 377.07 262.04C376.96 262.33 376.85 262.61 376.76 262.9C385.67 260.46 390.89 256.64 386.8 254.71C384.88 253.81 382.89 252.87 380.84 251.91C380.07 254 379.3 256.05 378.55 258.07Z" fill="white"/>
<path d="M391.34 224.61C389.96 228.03 388.63 231.41 387.34 234.75C387.34 234.77 387.33 234.77 387.33 234.79C386.04 238.11 384.8 241.39 383.57 244.6C383.57 244.62 383.55 244.65 383.55 244.66C400.48 241.47 412.02 228.92 408.76 228.24C403.37 227.12 397.51 225.9 391.34 224.61Z" fill="white"/>
<path d="M401.54 200.68C401.52 200.72 401.5 200.77 401.48 200.81C400.86 202.16 400.26 203.52 399.66 204.86C399.08 206.16 398.52 207.45 397.96 208.75C397.81 209.09 397.67 209.42 397.53 209.76C397.1 210.75 396.67 211.75 396.25 212.75C396.12 213.06 395.99 213.35 395.86 213.66C395.41 214.74 394.96 215.82 394.51 216.89C394.43 217.08 394.35 217.26 394.28 217.45C393.75 218.73 393.23 219.99 392.71 221.26C419.12 217.43 432.58 196.22 428.71 196.27C421.24 196.37 412.64 196.49 403.41 196.62C402.77 197.99 402.15 199.34 401.54 200.68Z" fill="white"/>
<path d="M418.52 166.82C417.91 167.93 417.31 169.04 416.7 170.15C416.68 170.2 416.65 170.25 416.63 170.3C416.04 171.39 415.46 172.48 414.88 173.57C414.85 173.65 414.8 173.71 414.77 173.78C414.2 174.86 413.63 175.94 413.07 177.02C413.03 177.1 412.99 177.17 412.96 177.24C412.39 178.32 411.84 179.4 411.29 180.48C411.25 180.56 411.22 180.63 411.17 180.7C410.62 181.79 410.07 182.88 409.53 183.96C409.5 184.03 409.47 184.09 409.44 184.15C408.89 185.25 408.34 186.35 407.81 187.45C407.79 187.5 407.77 187.54 407.75 187.58C407.19 188.7 406.65 189.82 406.11 190.95C406.1 190.96 406.09 190.97 406.09 190.99C405.54 192.13 405 193.27 404.46 194.41C436.82 186.21 447.35 160.65 443.39 161.5C436.67 162.95 428.16 164.76 418.54 166.79L418.52 166.82Z" fill="white"/>
<path d="M424.92 155.55C423.92 157.25 422.94 158.94 421.97 160.65C449.53 143.37 458.74 116.12 455.34 117.6C453.26 118.5 450.59 119.65 447.41 121.02C439.4 132.07 431.88 143.69 424.92 155.55Z" fill="white"/>
<path d="M467.44 95.86C461.85 102.22 456.43 108.91 451.22 115.87C461.45 108.3 465.98 101.46 467.44 95.86Z" fill="white"/>
<path d="M248.41 316.05C242.46 315.34 236.46 313.92 231.52 312.04C225.88 309.9 222.22 307.4 220.23 304.32C211.9 311.75 203.54 319.29 197.06 325C190.32 330.95 228.35 332.51 255.79 318.43C255.45 317.9 255.12 317.37 254.79 316.82L248.41 316.05Z" fill="white"/>
<path d="M218.95 301.6C218.17 299.09 218.38 296.49 219.45 294.21C210.85 292.86 203.47 290.04 199.22 288.16C188.89 283.59 182.8 278.68 181.08 273.53C161.69 282.7 143.02 291.56 134.23 295.77C124.38 300.49 174.81 331.94 219.7 303.42C219.4 302.83 219.15 302.24 218.95 301.6Z" fill="white"/>
<path d="M93.38 54.45C77.72 44.57 61.29 38.01 44.35 36.01C36.37 35.08 24.59 33.19 14.36 27.61C10.25 25.37 6.71 22.7 3.81 19.65C10.79 37.73 35.86 65.65 95.92 93.06C97.51 89.9 100.61 87.88 104.27 87.88C104.57 87.88 104.87 87.89 105.17 87.92C98.59 77 96.1 67.56 95.27 63.56L93.38 54.45Z" fill="white"/>
<path d="M105.31 149.12C106.68 145.14 110.33 142.41 114.76 142.41C115.26 142.41 115.77 142.45 116.28 142.52C113.14 138.89 110.48 135.28 108.28 131.95C99.63 118.85 93.88 103.56 94.9 96.38C95.07 95.22 95.41 94.14 95.89 93.16C51.88 74.19 18.02 59.57 12.48 57.18C1.81 52.56 0.920006 123.02 105.31 149.12Z" fill="white"/>
<path d="M180.81 272.47C179.81 267.8 182.03 263.3 186.37 261.18C179.89 259.69 174.59 257.83 171.12 256.45C166.18 254.49 161.82 252.28 158.49 250.05C155.19 247.85 150.75 244.3 150.19 238.95C150.18 238.88 150.18 238.8 150.17 238.72C119.57 245.18 94.14 250.55 82.63 252.99C70.81 255.47 127.68 287.75 180.81 272.47Z" fill="white"/>
<path d="M126.76 189.19C127.74 188.31 128.89 187.65 130.14 187.23C128.09 185.65 126.21 184.07 124.51 182.55C116.99 175.83 104.37 161.87 104.74 152.25C104.77 151.21 104.95 150.23 105.26 149.31C65.67 141.01 32.71 134.11 18.37 131.09C6.20001 128.55 33 187.06 123.67 194.98C124 192.74 125.09 190.69 126.76 189.19Z" fill="white"/>
<path d="M150.13 238.06C150.08 234.41 152.02 230.34 156.54 228.41C152.05 226.14 148.28 223.81 145.47 221.9C139.99 218.19 134.82 213.92 130.92 209.86C124.38 203.05 123.54 199.13 123.54 196.48C123.54 196.15 123.56 195.82 123.59 195.5C89.85 195.03 57.02 194.55 41.32 194.34C28.91 194.15 60.91 249.78 150.13 238.06Z" fill="white"/>
<path d="M249.48 307.18C246.29 300.88 243.27 294.01 240.28 286.63C236.25 290.17 232.16 293.77 228 297.42C224.67 300.34 236.4 305.61 249.48 307.18Z" fill="white"/>
<path d="M228.78 271.51C218.55 268.7 212.76 264.72 211.18 259.37C204.38 262.57 197.41 265.85 190.3 269.19C183.88 272.22 217.39 291.41 239.45 284.62C237.97 280.94 236.5 277.13 235.01 273.23L228.78 271.51Z" fill="white"/>
<path d="M127.68 82.26C120.06 74.68 112.16 67.78 104.02 61.75C106.31 72.8 114.83 93.47 136.92 108.83C134.46 105.31 132.75 101.74 131.81 98.12L127.68 82.26Z" fill="white"/>
<path d="M104.51 96.87C100.09 94.97 113.31 144.41 155.31 159.17C156.38 155.9 159.02 153.5 162.32 152.79C157.75 147.97 154.28 143.35 151.75 139.52C148.95 135.27 146.64 130.97 145.06 127.09C143.14 122.35 142.56 119.02 143.17 116.14C141.73 114.72 140.4 113.29 139.22 111.86C121.46 104.18 108.24 98.48 104.51 96.87Z" fill="white"/>
<path d="M189.66 228.63C189.72 226.37 190.54 224.3 191.91 222.69C187.96 220.49 184.71 218.13 182.17 216.01C179.09 213.43 169.04 204.37 169.62 196.29C169.63 196.24 169.63 196.2 169.64 196.16C157.58 195.99 143.95 195.79 133.45 195.64C126.67 195.54 155.98 227.24 189.66 228.63Z" fill="white"/>
<path d="M155.18 159.57C137 155.81 122.05 152.83 115.21 151.4C107.2 149.71 130.83 189.18 169.72 195.45C170.1 193.03 171.34 190.94 173.11 189.5C170.37 187.36 168.08 185.24 166.22 183.31C160.17 177.04 154.02 167.92 154.87 161.08C154.94 160.56 155.05 160.05 155.18 159.57Z" fill="white"/>
<path d="M210.9 254.68C211.14 253.28 211.68 251.85 212.6 250.51C208.39 248.83 204.33 246.66 200.69 244.07C194.02 239.34 190.35 234.7 189.75 230.25C180.15 232.29 169.69 234.52 160.91 236.36C151.19 238.41 181.41 256.04 210.9 254.68Z" fill="white"/>
<path d="M229.35 258.07C228.6 256.05 227.84 254 227.06 251.92C225.02 252.88 223.02 253.82 221.1 254.72C217.02 256.65 222.23 260.47 231.14 262.91C231.03 262.62 230.93 262.34 230.83 262.05C230.34 260.72 229.85 259.41 229.35 258.07Z" fill="white"/>
<path d="M220.57 234.8C220.56 234.78 220.56 234.78 220.55 234.76C219.25 231.42 217.93 228.04 216.55 224.62L216.54 224.61C210.38 225.9 204.52 227.14 199.12 228.26C195.87 228.93 207.4 241.49 224.33 244.68C224.32 244.66 224.31 244.64 224.31 244.62C223.11 241.39 221.86 238.12 220.57 234.8Z" fill="white"/>
<path d="M213.4 216.9C212.95 215.83 212.5 214.75 212.05 213.67C211.92 213.37 211.79 213.07 211.66 212.76C211.23 211.76 210.81 210.77 210.38 209.77C210.24 209.44 210.09 209.1 209.95 208.76C209.39 207.47 208.82 206.17 208.25 204.87C207.65 203.52 207.05 202.17 206.43 200.82C206.4 200.78 206.39 200.73 206.36 200.69C205.76 199.35 205.13 197.99 204.5 196.65C195.26 196.52 186.67 196.4 179.19 196.3C175.33 196.24 188.79 217.46 215.2 221.29C214.68 220.02 214.16 218.75 213.63 217.48C213.56 217.27 213.47 217.09 213.4 216.9Z" fill="white"/>
<path d="M201.81 190.95C201.27 189.83 200.73 188.71 200.18 187.59C200.15 187.55 200.14 187.5 200.11 187.46C199.57 186.36 199.02 185.27 198.48 184.16C198.45 184.1 198.42 184.03 198.39 183.98C197.85 182.89 197.29 181.8 196.75 180.71C196.71 180.64 196.67 180.57 196.63 180.49C196.08 179.42 195.53 178.33 194.96 177.25C194.93 177.17 194.89 177.1 194.85 177.03C194.28 175.95 193.72 174.87 193.15 173.79C193.12 173.73 193.08 173.65 193.04 173.58C192.46 172.49 191.88 171.39 191.29 170.31C191.27 170.26 191.24 170.22 191.22 170.17C190.62 169.05 190.02 167.94 189.4 166.83L189.39 166.82C179.77 164.78 171.26 162.96 164.55 161.53C160.58 160.67 171.12 186.23 203.49 194.43C202.95 193.29 202.41 192.15 201.85 191.01C201.83 190.98 201.82 190.97 201.81 190.95Z" fill="white"/>
<path d="M160.48 121.02C157.31 119.65 154.63 118.5 152.55 117.6C149.15 116.13 158.36 143.37 185.92 160.66C184.95 158.96 183.97 157.25 182.97 155.56C176.02 143.69 168.5 132.07 160.48 121.02Z" fill="white"/>
<path d="M156.68 115.87C151.46 108.93 146.05 102.23 140.46 95.86C141.91 101.46 146.44 108.3 156.68 115.87Z" fill="white"/>
<path d="M108.51 493.27H101.43C98.01 493.27 95.37 492.36 93.5 490.55C91.64 488.73 90.71 486.1 90.71 482.69V462.1C90.71 458.68 91.64 456.06 93.5 454.25C95.36 452.43 98 451.52 101.43 451.52H108.51C111.89 451.52 114.52 452.43 116.4 454.28C118.28 456.11 119.22 458.73 119.22 462.1V465.16C119.22 466.1 118.74 466.59 117.79 466.59H112.33C111.43 466.59 110.97 466.11 110.97 465.16V462.49C110.97 461.11 110.68 460.12 110.1 459.54C109.51 458.95 108.52 458.66 107.14 458.66H102.72C101.38 458.66 100.42 458.95 99.83 459.54C99.25 460.12 98.96 461.11 98.96 462.49V482.3C98.96 483.69 99.25 484.67 99.83 485.25C100.42 485.84 101.38 486.13 102.72 486.13H107.14C108.52 486.13 109.51 485.84 110.1 485.25C110.68 484.67 110.97 483.69 110.97 482.3V479.63C110.97 478.69 111.43 478.2 112.33 478.2H117.79C118.73 478.2 119.22 478.68 119.22 479.63V482.69C119.22 486.06 118.28 488.67 116.4 490.51C114.52 492.35 111.89 493.27 108.51 493.27Z" fill="white"/>
<path d="M163.39 493.27H157.15C156.37 493.27 156.11 492.81 156.37 491.91L166.63 452.88C166.94 451.96 167.59 451.52 168.59 451.52H177.23C178.31 451.52 178.96 451.97 179.18 452.88L189.44 491.91C189.71 492.81 189.44 493.27 188.66 493.27H182.43C181.96 493.27 181.63 493.17 181.46 492.98C181.29 492.78 181.15 492.42 181.07 491.91L179.25 484.77H166.59L164.77 491.91C164.68 492.43 164.54 492.78 164.35 492.98C164.13 493.17 163.82 493.27 163.39 493.27ZM172.8 459.37L168.12 478.14H177.73L173.05 459.37H172.8Z" fill="white"/>
<path d="M226.7 482.62V481.33C226.7 480.41 227.16 479.96 228.06 479.96H233.58C234.48 479.96 234.94 480.41 234.94 481.33V481.84C234.94 483.49 235.26 484.61 235.91 485.21C236.56 485.83 237.76 486.12 239.48 486.12H242.53C244.22 486.12 245.4 485.8 246.08 485.15C246.75 484.49 247.09 483.29 247.09 481.51V480.73C247.09 479.48 246.57 478.51 245.56 477.84C244.54 477.17 243.28 476.76 241.76 476.64C240.24 476.51 238.6 476.26 236.85 475.89C235.1 475.52 233.46 475.04 231.95 474.45C230.44 473.87 229.17 472.72 228.15 471.02C227.13 469.3 226.62 467.11 226.62 464.42V462.14C226.62 458.77 227.57 456.14 229.48 454.28C231.38 452.42 234.02 451.49 237.41 451.49H243.9C247.32 451.49 249.98 452.42 251.89 454.28C253.79 456.14 254.75 458.77 254.75 462.14V463.38C254.75 464.28 254.29 464.74 253.39 464.74H247.87C246.97 464.74 246.51 464.28 246.51 463.38V462.99C246.51 461.29 246.19 460.15 245.54 459.54C244.89 458.94 243.69 458.64 241.97 458.64H239.44C237.67 458.64 236.46 458.98 235.83 459.64C235.21 460.31 234.89 461.63 234.89 463.57V464.81C234.89 466.85 236.67 468.02 240.22 468.31C243.9 468.62 247.17 469.35 250.02 470.52C251.54 471.17 252.8 472.33 253.82 473.99C254.83 475.66 255.34 477.79 255.34 480.39V482.6C255.34 485.97 254.4 488.59 252.49 490.46C250.58 492.32 247.94 493.25 244.56 493.25H237.48C234.1 493.25 231.46 492.32 229.56 490.46C227.66 488.61 226.7 485.99 226.7 482.62Z" fill="white"/>
<path d="M308.93 493.27H303.47C302.52 493.27 302.04 492.81 302.04 491.91V459.37C302.04 458.9 301.81 458.66 301.33 458.66H293.92C293.02 458.66 292.56 458.2 292.56 457.3V452.89C292.56 451.97 293.02 451.53 293.92 451.53H318.47C319.38 451.53 319.83 451.98 319.83 452.89V457.3C319.83 458.2 319.38 458.66 318.47 458.66H311.07C310.55 458.66 310.29 458.9 310.29 459.37V491.91C310.29 492.82 309.84 493.27 308.93 493.27Z" fill="white"/>
<path d="M375.51 493.27H368.24C364.82 493.27 362.18 492.36 360.32 490.55C358.46 488.72 357.53 486.1 357.53 482.69V462.1C357.53 458.68 358.46 456.06 360.32 454.25C362.18 452.43 364.82 451.52 368.24 451.52H375.51C378.93 451.52 381.57 452.43 383.44 454.25C385.3 456.06 386.23 458.68 386.23 462.1V482.69C386.23 486.11 385.3 488.72 383.44 490.55C381.58 492.36 378.93 493.27 375.51 493.27ZM369.54 486.13H374.15C375.54 486.13 376.52 485.84 377.11 485.25C377.69 484.67 377.98 483.69 377.98 482.3V462.49C377.98 461.11 377.69 460.13 377.11 459.54C376.53 458.95 375.54 458.66 374.15 458.66H369.54C368.15 458.66 367.18 458.95 366.62 459.54C366.06 460.12 365.78 461.11 365.78 462.49V482.3C365.78 483.69 366.06 484.67 366.62 485.25C367.18 485.83 368.15 486.13 369.54 486.13Z" fill="white"/>
<path d="M432.83 493.27H427.31C426.4 493.27 425.94 492.82 425.94 491.91V452.88C425.94 451.97 426.4 451.52 427.31 451.52H442.76C446.14 451.52 448.77 452.44 450.69 454.3C452.59 456.17 453.55 458.79 453.55 462.17V467.23C453.55 472.12 451.63 475.37 447.77 476.97V477.23L454.71 491.71C455.11 492.74 454.74 493.26 453.62 493.26H448.35C447.57 493.26 447.01 493.18 446.66 493C446.31 492.83 446.04 492.47 445.82 491.9L439.33 477.87H434.97C434.45 477.87 434.19 478.11 434.19 478.58V491.89C434.19 492.82 433.73 493.27 432.83 493.27ZM434.9 471.26H441.27C442.66 471.26 443.67 470.97 444.32 470.38C444.97 469.8 445.29 468.85 445.29 467.56V462.49C445.29 461.16 444.97 460.18 444.32 459.58C443.67 458.97 442.66 458.67 441.27 458.67H434.9C434.43 458.67 434.19 458.91 434.19 459.38V470.55C434.19 471.02 434.43 471.26 434.9 471.26Z" fill="white"/>
<path d="M516.46 493.27H495.23C494.31 493.27 493.87 492.81 493.87 491.91V452.88C493.87 451.96 494.32 451.52 495.23 451.52H516.46C517.33 451.52 517.76 451.97 517.76 452.88V457.29C517.76 458.19 517.33 458.65 516.46 458.65H502.89C502.38 458.65 502.11 458.89 502.11 459.36V467.8C502.11 468.28 502.38 468.52 502.89 468.52H514C514.91 468.52 515.36 468.97 515.36 469.88V474.29C515.36 475.19 514.91 475.66 514 475.66H502.89C502.38 475.66 502.11 475.89 502.11 476.37V485.4C502.11 485.87 502.38 486.11 502.89 486.11H516.46C517.33 486.11 517.76 486.56 517.76 487.47V491.89C517.76 492.82 517.33 493.27 516.46 493.27Z" fill="white"/>
</svg>
