<?xml version="1.0" encoding="utf-8"?>
<!-- Generator: Adobe Illustrator 22.1.0, SVG Export Plug-In . SVG Version: 6.00 Build 0)  -->
<svg version="1.1" id="Layer_1" xmlns="http://www.w3.org/2000/svg" xmlns:xlink="http://www.w3.org/1999/xlink" x="0px" y="0px"
	 viewBox="0 0 99 100" style="enable-background:new 0 0 99 100;" xml:space="preserve">
<style type="text/css">
	.st0{fill:#FFFFFF;}
</style>
<path class="st0" d="M39.3,48.6V35.1h4.3c2.8,0,4.9,1.7,4.9,4.5c0,2.9-2.1,4.6-4.9,4.6H42v4.4H39.3z M42,41.7h1.5
	c1.3,0,2.3-0.7,2.3-2.1c0-1.3-1-2-2.3-2H42V41.7z M83.9,63.6c-2,0-4.4-1.1-4.4-4.4v-4.8H82V59c0,1.5,0.7,2.2,1.9,2.2
	c1.1,0,1.9-0.8,1.9-2.2v-4.6h2.5v4.8C88.3,62.5,85.9,63.6,83.9,63.6 M62.7,63.6c-2.4,0-4.4-2.2-4.4-4.7c0-2.5,2.1-4.6,4.4-4.6
	c1.3,0,2.2,0.5,2.8,1.3l0.3-1.2h2.2v8.9h-2.2l-0.3-1.1C64.9,63,63.9,63.6,62.7,63.6 M63.2,56.5c-1.3,0-2.3,1-2.3,2.4
	c0,1.3,1,2.3,2.3,2.3c1.3,0,2.3-1,2.3-2.3C65.5,57.5,64.5,56.5,63.2,56.5 M79.4,39.7h2.5v8.9h-2.5V39.7z M80.6,38.5
	c-0.9,0-1.5-0.7-1.5-1.5c0-0.9,0.7-1.5,1.5-1.5c0.9,0,1.5,0.7,1.5,1.5C82.2,37.8,81.5,38.5,80.6,38.5 M75.7,43.4
	c0-1-0.5-1.6-1.4-1.6c-1,0-1.5,0.6-1.5,1.6v5.2h-2.5v-5.3c0-1-0.5-1.6-1.4-1.6c-1,0-1.5,0.6-1.5,1.6v5.2h-2.5v-8.9h2.2l0.3,1.2
	c0,0,0.5-1.4,2.2-1.4c1,0,1.9,0.4,2.5,1.3l0.1,0.1l0.1-0.1c0.9-1.2,1.9-1.3,2.6-1.3c1.9,0,3.2,1.4,3.2,3.5v5.7h-2.5V43.4z
	 M92.9,48.6v-8.9h2.1l0.3,1.3c0.4-0.8,1.2-1.4,2.3-1.4c0.2,0,0.5,0,0.7,0.1v2.4C98,42,97.7,42,97.4,42c-1.2,0-2,0.7-2,2.2v4.5H92.9z
	 M49.4,48.6v-8.9h2.1l0.3,1.3c0.4-0.8,1.2-1.4,2.3-1.4c0.2,0,0.5,0,0.7,0.1v2.4C54.5,42,54.2,42,53.9,42c-1.2,0-2,0.7-2,2.2v4.5
	H49.4z M39.3,63.3V50.1H42v10.7h5.7v2.5H39.3z M53.1,63.6c-2.8,0-4.8-1.9-4.8-4.7c0-2.5,1.8-4.7,4.7-4.7c2.2,0,4.4,1.6,4.4,4.7
	c0,0.2,0,0.5-0.1,0.9h-6.5c0.2,1,1.1,1.7,2.2,1.7c1,0,1.8-0.4,2.4-1l1.5,1.5C56,63,54.6,63.6,53.1,63.6 M52.9,56.3
	c-1,0-1.9,0.6-2.1,1.6H55C54.8,57,53.9,56.3,52.9,56.3 M94,63.6c-2.8,0-4.8-1.9-4.8-4.7c0-2.5,1.8-4.7,4.7-4.7
	c2.2,0,4.4,1.6,4.4,4.7c0,0.2,0,0.5-0.1,0.9h-6.5c0.2,1,1.1,1.7,2.2,1.7c1,0,1.8-0.4,2.4-1l1.5,1.5C96.9,63,95.5,63.6,94,63.6
	 M93.9,56.3c-1,0-1.9,0.6-2.1,1.6h4.1C95.7,57,94.9,56.3,93.9,56.3 M87.6,48.9c-2.8,0-4.8-1.9-4.8-4.7c0-2.5,1.8-4.7,4.7-4.7
	c2.2,0,4.4,1.6,4.4,4.7c0,0.2,0,0.5-0.1,0.9h-6.5c0.2,1,1.1,1.7,2.2,1.7c1,0,1.8-0.4,2.4-1l1.5,1.5C90.5,48.3,89.1,48.9,87.6,48.9
	 M87.5,41.6c-1,0-1.9,0.6-2.1,1.6h4.1C89.3,42.3,88.5,41.6,87.5,41.6 M59.7,48.9c-2.8,0-4.8-1.9-4.8-4.7c0-2.5,1.8-4.7,4.7-4.7
	c2.2,0,4.4,1.6,4.4,4.7c0,0.2,0,0.5-0.1,0.9h-6.5c0.2,1,1.1,1.7,2.2,1.7c1,0,1.8-0.4,2.4-1l1.5,1.5C62.7,48.3,61.2,48.9,59.7,48.9
	 M59.6,41.6c-1,0-1.9,0.6-2.1,1.6h4.1C61.4,42.3,60.6,41.6,59.6,41.6 M73.7,56.5c-1.3,0-2.3,1-2.3,2.4c0,1.3,1,2.3,2.3,2.3
	c1.3,0,2.3-1,2.3-2.3C76.1,57.5,75,56.5,73.7,56.5 M75.9,55.5l0.3-1.1h2.2v8.5c0,1.7-0.5,2.8-1.6,3.7c-0.8,0.6-2,1.1-3.3,1.1
	c-1.9,0-3.2-0.6-4.3-1.7l1.4-1.9c0.7,0.6,1.6,1.2,2.7,1.2c1.8,0,2.6-0.9,2.6-2.2v-0.6c-0.7,0.8-1.6,1.1-2.6,1.1
	c-2.5,0-4.5-2.1-4.5-4.7c0-2.6,2.1-4.6,4.6-4.6C74.5,54.2,75.4,54.7,75.9,55.5 M8,31.5c1.8,0.8,2.9,1.8,3.1,2
	c-0.1-0.5-0.4-2.7-0.6-4.1c1,0.7,3.4,2.4,4.2,2.9c0.3-1,1.4-4.2,1.4-4.2s2,3.3,2.4,3.8c0.4-0.4,2.8-3.1,3.5-3.8
	c0.1,1.5,0.2,3.8,0.3,4.1c0.1-0.2,1-1.5,2.6-2.7c-0.7,1.3-1,3.2-1.1,4.6c-1.5-0.4-3.1-0.7-4.8-0.7c-3.2,0-6.2,0.8-8.8,2.3
	C9.7,34.5,8.9,32.7,8,31.5z M26.5,50l0-2.3c0,0-1-0.3-2.1-1.2c-2.2,0.3-4.8,2.5-4.8,2.5s0.9,1.7,1.9,3.5
	C23.2,52.8,25.7,50.6,26.5,50z M28.7,54.1c0,0-0.2-0.9-0.9-1.8l-1.7,0c0,0-2.3,2-3.7,2c0,0,0.8,1.4,1.2,2.2c0.8-0.2,2.1-0.8,2.7-1.4
	c0,0,0.4,1.2,0.3,2.5C27.3,57.2,28.4,56,28.7,54.1z M29.4,46.6c-0.9,0.7-1.6,1.1-1.6,1.1l0,2.3c0.6,0.7,1.2,1.3,1.7,2.3
	C30.4,50.8,30.2,48.5,29.4,46.6z M29.6,44.6l0.1-1c0-0.6-0.1-1.5-0.9-2.5c-1-1.1-3.5-2.9-4.7-3.3c0,0-0.1,1.2-0.5,1.7
	c-2.4-1.7-3.5-2.1-3.5-2.1c-2.6,0.4-4.3,1.4-5.2,2.2l0.8,0.7c-1.6,0.5-2.6,1.8-2.6,1.8c0,0,1.4,0.2,1.4,0.2s-0.1,1.6,1.9,2.7
	c1.8,0.9,4.3-0.2,6.7,0.7c-1.6-1.8-2.6-2.6-2.6-2.6s-0.6-0.1-1.1-0.1c-0.5,0-1.4,0.1-2.3-0.2c-0.4-0.2-0.9-0.5-1.3-0.7
	c0,0,1.1-1.1,2.7-1.4c0,0,1.4,0.4,2.6,1.3c0.8-0.7,1.6-0.7,1.6-0.7s-0.8,0.7-0.5,1.6c1.1,1,2.4,2.5,2.4,2.5c1.3-0.7,4-0.5,4.6,0.1
	c-0.7-0.9-1.7-1.7-2.5-2.4c-0.1-0.3-1-1.6-1.1-1.7c0,0,0.8,0.3,1.6,0.9c0.2-0.3,0.6-0.6,1.2-0.7c0.6,0.5,0.7,1.2,0.6,1.3
	c-0.3,0.3-0.5,0.4-0.5,0.4L29.6,44.6l0.1-1 M31,45.4c2,3.8,2.5,8.3,1.1,12.8c-0.1-0.1-1.2-1.3-1.6-1.8c-0.3,4.4-1.6,7.8-5.4,10.7
	c0,0-0.4-1.4-0.6-2.2c-6.2,4.6-11.6,2.5-13.1,1.7c1.2-5.4,0.3-8.4-0.5-10.8c-1.7,2.7-3.4,4.8-5.1,6.3c-1.2-2.7-1.2-7.7-0.3-10.7
	c-0.3,0.1-2.1,0.7-3.2,1c0.4-2.7,2.2-6.4,4.1-8.2c-0.3-0.1-1.3-0.2-2.1-0.3c0.5-1,1.9-2.8,4-4.5c-0.1,1.2,0.4,2.6,1.7,3.3
	c-0.9-1.5-1-3.3-0.1-4.3c0.9-1,2.4-0.6,3.3,0.1c-0.2-0.5-0.6-1.1-1.1-1.5c2.6-1.2,5.8-1.9,9.5-1.4c0.6,0.5,1.2,1.2,1.5,1.6
	c0-0.3,0-0.9-0.1-1.3c1.5,0.4,3,0.9,4.6,1.7c-2.9-2.9-8.7-3.7-13.5-2.3C13.1,35.6,12,36,11,36.5c-1.1,0-1.8,0.7-2.1,1.2
	c-3.1,2.1-5.4,4.8-6.5,7c0.2,0.1,1,0.1,1.7,0.3c-1.4,2-3.2,5.7-3.1,9.1c0.3-0.1,2-0.6,2.8-0.9c-0.4,3-0.3,7.9,1.6,10.8
	c2.4-1.7,3.8-3.5,5-5.1c0.3,1.5,0.6,4.1-0.4,8.4c0.8,0.6,6.9,3.8,13.8-0.3l0.6,2.3l0.7-0.5c4.2-2.7,5.8-6.4,6.3-9.4
	c0.2,0.2,1,1,1.2,1.3C33.7,57.8,35.7,50.9,31,45.4z"/>
</svg>
